<?xml version="1.0" standalone="no"?>
<!DOCTYPE svg PUBLIC "-//W3C//DTD SVG 20010904//EN"
 "http://www.w3.org/TR/2001/REC-SVG-20010904/DTD/svg10.dtd">
<svg version="1.0" xmlns="http://www.w3.org/2000/svg"
 width="512.000000pt" height="512.000000pt" viewBox="0 0 512.000000 512.000000"
 preserveAspectRatio="xMidYMid meet">
<metadata>
Created by potrace 1.15, written by Peter Selinger 2001-2017
</metadata>
<g transform="translate(0.000000,512.000000) scale(0.100000,-0.100000)"
fill="#000000" stroke="none">
<path d="M1500 4777 c-97 -35 -157 -73 -236 -151 -76 -77 -119 -145 -155 -246
-23 -64 -24 -70 -27 -610 l-3 -546 23 -33 c37 -55 73 -76 127 -75 51 0 101 27
124 67 9 17 13 155 17 552 l5 530 26 55 c37 80 81 125 157 162 l67 33 692 3
693 3 0 -416 c0 -341 3 -430 16 -493 36 -177 162 -341 325 -421 137 -68 166
-71 657 -71 l433 0 -3 -1077 c-3 -1241 6 -1131 -102 -1238 -84 -84 -122 -95
-325 -95 -86 0 -172 -4 -190 -10 -112 -32 -143 -173 -56 -249 l36 -31 209 0
c196 0 214 2 289 25 189 60 334 206 402 404 18 52 19 110 19 1280 l1 1226
-533 529 c-293 290 -621 615 -729 722 l-195 194 -850 0 -849 0 -65 -23z m2750
-1365 c3 -2 -150 -2 -340 0 -332 4 -347 5 -403 27 -77 30 -148 101 -178 178
-22 56 -23 71 -27 398 l-3 340 473 -470 c260 -258 475 -471 478 -473z"/>
<path d="M2158 3130 c-15 -4 -159 -111 -320 -236 -161 -126 -538 -419 -838
-652 -300 -234 -560 -438 -577 -455 -28 -26 -33 -38 -33 -75 0 -54 12 -77 50
-97 24 -13 85 -15 370 -15 l340 0 0 -460 c0 -435 1 -462 20 -513 29 -76 79
-130 158 -169 l67 -33 805 0 805 0 55 26 c70 33 126 89 159 159 l26 55 0 467
0 468 349 0 348 0 34 34 c45 45 48 101 7 145 -21 22 -1478 1161 -1693 1323
-39 30 -92 41 -132 28z"/>
</g>
</svg>
