<?xml version="1.0" standalone="no"?>
<!DOCTYPE svg PUBLIC "-//W3C//DTD SVG 20010904//EN"
 "http://www.w3.org/TR/2001/REC-SVG-20010904/DTD/svg10.dtd">
<svg version="1.0" xmlns="http://www.w3.org/2000/svg"
 width="512.000000pt" height="512.000000pt" viewBox="0 0 512.000000 512.000000"
 preserveAspectRatio="xMidYMid meet">
<metadata>
Created by potrace 1.15, written by Peter Selinger 2001-2017
</metadata>
<g transform="translate(0.000000,512.000000) scale(0.100000,-0.100000)"
fill="#000000" stroke="none">
<path d="M2193 4686 c-59 -19 -108 -51 -143 -96 -55 -70 -60 -98 -60 -366 l0
-244 75 0 75 0 0 233 c0 212 2 235 20 264 42 69 34 68 447 71 234 2 387 -1
411 -7 21 -6 51 -25 67 -41 l30 -31 5 -1982 5 -1982 24 -53 c31 -69 106 -137
174 -157 39 -12 108 -15 308 -15 236 0 263 2 313 20 66 25 130 85 159 148 l22
47 3 1178 2 1177 -75 0 -75 0 -2 -1162 -3 -1163 -24 -34 c-41 -56 -64 -61
-320 -61 -253 0 -293 7 -328 58 -17 26 -18 118 -23 2007 l-5 1980 -21 46 c-30
63 -79 116 -138 147 l-51 27 -415 2 c-323 2 -424 -1 -457 -11z"/>
<path d="M3690 4195 l0 -215 360 0 360 0 0 215 0 215 -360 0 -360 0 0 -215z
m290 0 l0 -65 -70 0 -70 0 0 65 0 65 70 0 70 0 0 -65z m280 0 l0 -65 -65 0
-65 0 0 65 0 65 65 0 65 0 0 -65z"/>
<path d="M1840 3765 l0 -75 220 0 220 0 0 75 0 75 -220 0 -220 0 0 -75z"/>
<path d="M3550 3555 l0 -285 505 0 505 0 0 285 0 285 -505 0 -505 0 0 -285z"/>
<path d="M1560 3415 l0 -145 500 0 500 0 0 145 0 145 -500 0 -500 0 0 -145z"/>
<path d="M602 3123 c-34 -14 -42 -59 -42 -243 l0 -180 1145 0 1145 0 0 189 c0
175 -1 190 -21 215 l-20 26 -1097 -1 c-603 0 -1103 -3 -1110 -6z"/>
<path d="M3840 3055 l0 -75 215 0 215 0 0 75 0 75 -215 0 -215 0 0 -75z"/>
<path d="M562 1444 l3 -1116 28 -24 28 -24 1090 0 1090 0 24 25 25 24 0 1116
0 1115 -1145 0 -1145 0 2 -1116z m1269 551 l117 -120 -50 -44 -49 -44 -40 39
-39 38 0 -292 0 -292 115 0 115 0 0 75 0 75 -35 0 -35 0 0 135 0 135 135 0
135 0 0 -135 0 -135 -35 0 -35 0 0 -107 0 -107 -37 -38 -37 -38 -143 0 -143 0
0 -144 0 -144 30 -12 c61 -25 120 -120 120 -191 0 -71 -56 -161 -120 -194 -71
-37 -159 -27 -224 27 -114 94 -104 272 20 347 l43 26 1 73 0 72 -142 0 -142 0
-38 37 -38 37 0 116 c0 111 -1 118 -25 140 -40 38 -50 91 -26 144 25 57 62 81
122 81 57 0 96 -25 123 -79 23 -47 15 -95 -24 -140 -28 -32 -30 -39 -30 -120
l0 -86 110 0 110 0 0 367 0 367 -40 -39 -40 -39 -47 46 -47 47 119 121 c66 66
122 119 125 118 3 -2 57 -57 121 -123z"/>
<path d="M1650 710 c-26 -26 -27 -89 -1 -121 25 -31 83 -32 113 -1 29 28 31
92 4 121 -26 28 -88 29 -116 1z"/>
</g>
</svg>
