<?xml version="1.0" standalone="no"?>
<!DOCTYPE svg PUBLIC "-//W3C//DTD SVG 20010904//EN"
 "http://www.w3.org/TR/2001/REC-SVG-20010904/DTD/svg10.dtd">
<svg version="1.0" xmlns="http://www.w3.org/2000/svg"
 width="216.000000pt" height="216.000000pt" viewBox="0 0 216.000000 216.000000"
 preserveAspectRatio="xMidYMid meet">
<metadata>
Created by potrace 1.15, written by Peter Selinger 2001-2017
</metadata>
<g transform="translate(0.000000,216.000000) scale(0.100000,-0.100000)"
fill="#000000" stroke="none">
<path d="M853 1955 c-319 -82 -567 -332 -649 -652 -34 -135 -34 -311 0 -446
82 -322 331 -571 653 -653 135 -34 311 -34 446 0 321 82 571 332 653 653 34
135 34 311 0 446 -82 322 -331 571 -653 653 -134 34 -317 33 -450 -1z m463
-202 c66 -25 194 -94 194 -105 0 -2 -225 -228 -499 -502 l-499 -499 -37 58
c-21 32 -51 94 -68 139 -30 78 -32 87 -32 236 0 150 1 158 32 239 89 230 264
388 506 456 37 11 91 14 187 12 121 -3 143 -7 216 -34z m400 -355 c58 -116 77
-202 72 -342 -3 -99 -9 -135 -32 -201 -73 -211 -240 -379 -451 -451 -113 -39
-287 -46 -399 -15 -77 21 -176 66 -230 104 l-28 20 498 499 499 498 19 -22
c10 -13 33 -53 52 -90z"/>
</g>
</svg>
