<?xml version="1.0" standalone="no"?>
<!DOCTYPE svg PUBLIC "-//W3C//DTD SVG 20010904//EN"
 "http://www.w3.org/TR/2001/REC-SVG-20010904/DTD/svg10.dtd">
<svg version="1.0" xmlns="http://www.w3.org/2000/svg"
 width="450.000000pt" height="450.000000pt" viewBox="0 0 450.000000 450.000000"
 preserveAspectRatio="xMidYMid meet">
<metadata>
Created by potrace 1.15, written by Peter Selinger 2001-2017
</metadata>
<g transform="translate(0.000000,450.000000) scale(0.100000,-0.100000)"
fill="#000000" stroke="none">
<path d="M240 3650 l0 -290 138 0 c157 0 205 -10 277 -60 58 -40 146 -157 208
-278 l47 -91 -62 -42 c-207 -141 -365 -361 -376 -525 -4 -69 -3 -74 41 -155
61 -115 73 -168 68 -314 -11 -297 -1 -355 69 -419 76 -69 175 -69 313 0 117
59 196 160 213 271 l6 41 36 -15 c21 -8 85 -46 145 -85 88 -58 116 -72 157
-76 l50 -5 99 -186 c54 -102 149 -283 211 -401 62 -118 130 -248 152 -288 l40
-72 227 0 228 0 36 78 c36 77 147 319 312 680 l88 192 49 0 c55 0 102 21 194
86 33 24 85 55 115 69 l54 25 11 -53 c23 -114 102 -209 217 -264 136 -66 232
-65 307 3 70 64 80 122 69 419 -5 146 7 199 68 314 44 81 45 86 41 155 -9 129
-90 268 -239 411 -46 44 -121 105 -166 135 -46 30 -83 59 -83 63 0 20 79 158
132 228 61 84 125 134 196 155 29 9 96 14 184 14 l138 0 0 285 0 285 -2005 0
-2005 0 0 -290z m2160 6 l0 -143 -82 -6 c-185 -13 -257 -77 -245 -216 3 -36 9
-76 13 -88 6 -22 3 -23 -39 -23 l-45 0 -12 63 c-21 116 13 220 94 282 40 31
142 65 192 65 l34 0 0 60 0 60 -920 0 -920 0 0 -59 0 -58 70 -6 c146 -12 254
-96 386 -297 83 -127 187 -317 180 -328 -6 -11 -65 -37 -70 -31 -1 2 -36 63
-76 134 -140 251 -239 374 -335 416 -30 13 -78 22 -145 26 l-100 6 0 137 c0
75 3 140 7 143 3 4 458 7 1010 7 l1003 0 0 -144z m1710 0 l0 -143 -102 -5
c-126 -7 -191 -29 -273 -95 -78 -64 -146 -155 -229 -310 -38 -70 -71 -130 -72
-132 -5 -6 -64 20 -70 31 -7 11 89 192 152 288 125 191 263 284 451 306 l54 7
-3 56 c-2 31 -6 55 -10 54 -5 -2 -287 -3 -628 -3 l-620 0 0 -54 0 -53 84 -16
c258 -47 358 -204 280 -437 -19 -54 -20 -55 -54 -52 -19 1 -38 6 -42 10 -4 4
2 33 13 66 24 71 26 163 5 204 -39 76 -138 121 -286 131 l-85 6 -3 129 c-1 72
0 136 2 143 4 11 142 13 721 13 l715 0 0 -144z m-1575 -527 c556 -41 1026
-216 1285 -480 33 -33 69 -75 81 -92 14 -22 9 -18 -16 11 -20 23 -46 47 -57
53 -11 6 5 -19 36 -55 72 -85 72 -96 0 -20 -31 32 -44 43 -30 24 14 -19 40
-55 58 -80 27 -39 23 -36 -26 18 -32 34 -68 68 -79 74 -12 6 7 -20 42 -58 34
-38 68 -78 73 -89 6 -11 -15 8 -47 43 -32 35 -60 61 -63 58 -3 -3 14 -26 37
-51 43 -47 101 -132 101 -149 0 -5 -13 10 -29 35 -16 24 -47 60 -67 79 -41 38
-38 31 18 -40 19 -25 43 -58 52 -75 17 -30 17 -30 -1 -5 -10 14 -40 48 -67 75
l-48 50 49 -65 c28 -36 55 -76 62 -90 l12 -25 -18 25 c-31 43 -86 101 -91 96
-2 -3 11 -23 29 -45 19 -21 42 -54 52 -73 17 -32 17 -32 0 -8 -32 44 -75 90
-84 90 -5 0 11 -25 36 -55 59 -73 58 -85 -1 -17 -25 29 -55 57 -67 63 -14 7
-8 -4 18 -32 70 -76 81 -96 25 -43 -83 76 -102 85 -40 18 82 -87 102 -116 39
-56 -74 71 -84 66 -15 -8 31 -34 61 -71 67 -83 7 -12 -14 7 -46 41 -31 34 -62
62 -68 62 -5 0 13 -24 40 -53 27 -29 56 -64 63 -77 7 -14 -10 0 -39 30 -55 57
-52 47 11 -36 21 -27 38 -53 38 -58 0 -5 -16 11 -34 36 -19 25 -42 48 -51 52
-9 3 1 -16 21 -42 60 -75 62 -81 5 -19 -29 31 -62 62 -74 69 -12 6 5 -18 37
-53 81 -89 92 -117 17 -41 -85 85 -99 79 -18 -8 36 -38 71 -78 77 -90 18 -33
5 -23 -25 21 -16 22 -42 50 -59 62 -26 18 -24 13 15 -31 25 -29 56 -72 68 -95
12 -23 16 -34 9 -23 -34 48 -76 97 -108 122 -26 22 -19 11 24 -40 81 -96 118
-179 124 -275 6 -99 -12 -145 -65 -167 -73 -31 -198 11 -284 95 -72 71 -89
119 -68 189 13 41 18 47 40 44 13 -2 29 -8 35 -13 6 -5 13 -7 16 -4 2 3 17 -9
32 -26 22 -24 34 -30 57 -27 18 3 29 0 29 -8 0 -23 -33 -25 -62 -4 -15 11 -28
16 -28 11 0 -14 41 -41 61 -41 9 0 23 7 30 16 11 13 10 22 -6 52 -30 56 -92
85 -191 90 -129 7 -216 -26 -354 -134 -54 -42 -138 -86 -125 -65 3 6 12 11 19
11 8 0 20 7 27 16 7 9 58 49 112 90 55 41 95 74 90 74 -12 0 -103 -57 -130
-83 -13 -11 -23 -16 -23 -9 0 15 21 34 79 72 63 40 60 53 -3 16 -32 -19 -44
-22 -40 -11 3 8 9 15 13 15 3 0 20 12 36 26 22 18 24 22 8 14 -28 -13 -31 3
-4 22 10 7 19 18 20 23 2 17 53 66 78 76 71 27 280 19 299 -12 3 -5 -7 -4 -23
2 -36 14 -141 13 -194 -1 -56 -15 -46 -21 16 -9 61 12 136 4 193 -21 49 -22
58 -35 9 -15 -73 30 -215 27 -267 -7 -12 -7 -11 -8 4 -4 10 4 51 9 90 13 81 6
167 -13 207 -47 23 -18 21 -18 -19 2 -50 24 -158 34 -217 20 -36 -9 -31 -10
47 -11 101 -1 181 -26 219 -67 l24 -27 -40 26 c-22 14 -57 30 -79 37 -46 15
-192 9 -221 -8 -18 -11 -16 -11 10 -5 17 4 64 7 105 7 91 0 166 -31 223 -89
50 -51 59 -96 32 -157 -6 -15 -2 -18 31 -17 36 0 37 1 16 11 l-23 12 23 12
c18 11 19 13 6 14 -25 0 -22 15 5 28 l22 11 -22 0 c-13 1 -23 5 -23 9 0 5 10
14 23 20 l22 11 -22 0 c-25 1 -32 21 -8 21 8 0 15 5 15 10 0 6 -11 10 -25 10
-32 0 -32 16 0 22 25 5 65 -26 65 -50 0 -7 5 -12 11 -12 8 0 8 -5 -1 -15 -10
-12 -9 -15 6 -15 15 0 15 -3 -6 -25 -25 -27 -21 -32 11 -15 25 14 24 2 -3 -27
-22 -23 -12 -33 10 -11 19 19 14 -3 -5 -25 -17 -19 -17 -20 0 -14 26 10 21 -9
-9 -32 -15 -12 -21 -21 -14 -21 8 0 22 7 32 17 28 25 22 -4 -7 -32 -13 -14
-20 -25 -15 -25 16 0 49 52 56 87 4 20 0 61 -9 99 -52 210 -285 397 -634 507
-257 81 -504 115 -888 121 -722 12 -1258 -131 -1521 -406 -33 -34 -73 -84 -87
-109 -35 -59 -61 -167 -53 -212 7 -35 40 -87 56 -87 5 0 -2 11 -15 25 -30 29
-34 56 -5 30 11 -10 22 -16 25 -13 3 3 -4 13 -15 23 -25 22 -26 37 -2 28 15
-6 14 -3 -3 17 l-20 23 25 -8 25 -7 -22 24 c-28 30 -29 42 -4 28 32 -17 36
-12 11 15 -21 22 -21 25 -6 25 15 0 16 3 6 15 -9 10 -9 15 -1 15 6 0 11 5 11
12 0 24 40 55 65 50 28 -5 24 -22 -6 -22 -10 0 -19 -4 -19 -10 0 -5 7 -10 15
-10 24 0 17 -20 -7 -21 l-23 0 23 -11 c30 -15 28 -28 -5 -29 l-28 -1 28 -10
c31 -11 35 -25 10 -31 -15 -3 -14 -6 7 -15 l25 -11 -24 -7 c-23 -7 -23 -8 -6
-14 31 -11 57 0 49 19 -4 9 -9 34 -11 56 -10 92 117 186 254 189 37 0 86 -2
108 -6 l40 -8 -40 16 c-65 25 -188 16 -254 -19 -34 -17 -49 -22 -41 -12 32 39
93 59 200 65 98 5 102 6 56 14 -72 13 -161 1 -220 -28 -28 -14 -42 -19 -31
-10 63 51 176 74 275 56 68 -13 77 -8 19 9 -62 18 -186 16 -231 -4 -21 -9 -38
-14 -38 -11 0 3 21 15 47 26 50 22 160 30 218 15 26 -6 28 -6 10 5 -33 20
-184 23 -228 4 -21 -8 -35 -11 -32 -6 3 5 31 17 63 26 79 23 234 13 277 -18
29 -21 61 -58 59 -68 -1 -3 7 -11 17 -18 26 -18 24 -36 -2 -22 -38 21 -29 5
11 -20 56 -34 59 -56 4 -24 -68 40 -62 23 11 -29 36 -26 65 -52 65 -59 0 -6
-10 -2 -22 9 -35 31 -108 77 -114 71 -3 -3 10 -16 28 -29 18 -12 65 -49 105
-81 39 -32 76 -58 82 -58 5 0 13 -5 16 -11 14 -22 -74 25 -140 76 -130 99
-217 130 -343 123 -96 -5 -157 -35 -187 -90 -16 -30 -17 -39 -6 -52 22 -26 51
-19 89 22 20 20 30 29 23 19 -8 -9 -12 -20 -9 -22 2 -3 15 10 28 28 14 18 17
26 7 18 -14 -11 -17 -11 -17 0 0 8 -18 -5 -40 -29 -40 -44 -72 -53 -78 -21 -2
13 3 15 23 11 20 -3 34 3 58 26 18 17 34 31 37 31 3 0 18 4 33 10 37 14 42 10
56 -42 18 -61 1 -117 -52 -174 -51 -55 -104 -87 -184 -109 -123 -34 -183 12
-183 138 0 118 43 215 145 328 l40 44 -42 -33 c-24 -18 -43 -36 -43 -39 -1 -4
-15 -23 -32 -42 -31 -36 -30 -27 4 22 24 35 23 45 -4 22 -22 -19 -23 -19 -8 1
7 11 41 48 74 83 33 34 56 62 51 62 -15 -1 -80 -60 -114 -104 -17 -21 -31 -35
-31 -31 0 13 43 68 100 130 60 65 44 58 -34 -14 -49 -45 -47 -34 3 22 14 15
20 27 14 27 -7 0 -29 -21 -49 -47 -52 -66 -58 -72 -44 -43 7 14 29 45 49 70
21 25 41 52 46 60 14 26 -46 -33 -76 -74 -16 -21 -29 -36 -29 -32 0 13 41 69
83 113 23 24 38 45 35 48 -3 3 -31 -23 -63 -57 -32 -34 -52 -51 -45 -38 7 13
36 48 63 77 66 70 54 79 -14 11 -68 -67 -45 -34 35 51 67 72 51 65 -34 -13
-57 -53 -44 -32 24 42 22 23 36 42 30 42 -11 0 -93 -83 -118 -120 -9 -13 -16
-20 -16 -14 0 5 22 38 50 72 58 72 51 84 -9 15 -56 -65 -52 -47 5 22 25 31 44
59 41 61 -5 5 -61 -55 -90 -96 -17 -25 -17 -25 -2 7 8 18 30 50 47 70 60 72
62 78 9 28 l-54 -50 48 65 48 65 -42 -40 c-24 -22 -56 -62 -72 -90 -16 -27
-29 -45 -29 -40 0 20 59 112 104 162 25 28 46 55 46 59 0 16 -92 -81 -117
-123 -14 -24 -27 -43 -30 -43 -13 0 49 90 100 146 32 35 54 64 49 64 -6 0 -38
-30 -73 -67 -70 -76 -69 -69 4 27 l49 65 -57 -59 c-67 -69 -59 -44 10 32 26
29 42 52 37 52 -10 0 -58 -50 -100 -105 -13 -16 -20 -23 -16 -15 36 74 195
226 323 308 367 235 981 356 1586 311z m-44 -809 c26 0 33 -7 66 -75 21 -41
40 -75 43 -75 4 0 19 32 36 71 l29 70 40 -6 c21 -3 41 -8 43 -10 5 -5 -126
-305 -139 -319 -7 -8 -179 322 -179 345 0 6 7 8 16 5 9 -3 29 -6 45 -6z m600
-79 c3 -3 -65 -159 -151 -346 -86 -187 -232 -504 -324 -705 -92 -201 -175
-371 -184 -377 -22 -18 -252 -18 -274 0 -9 6 -109 190 -223 407 -114 217 -227
431 -250 475 -140 264 -275 523 -275 528 0 10 74 27 81 19 4 -4 71 -128 149
-277 78 -148 170 -324 205 -390 158 -300 303 -575 330 -627 l30 -58 93 0 c50
0 92 4 92 9 0 5 18 47 39 93 22 45 108 232 191 413 83 182 206 448 272 593
l121 262 36 -6 c20 -4 39 -9 42 -13z"/>
<path d="M2095 3034 c-124 -11 -265 -26 -297 -31 -32 -5 -38 -10 -38 -29 0
-13 3 -23 8 -23 28 5 56 -4 77 -26 24 -23 25 -28 25 -169 l0 -145 -31 -36
c-17 -19 -42 -38 -55 -41 -15 -4 -24 -13 -24 -26 0 -19 5 -20 48 -15 26 3 108
11 182 17 246 21 240 20 240 39 0 13 -10 21 -30 25 -17 3 -42 17 -55 30 -24
24 -25 29 -25 171 0 81 5 155 10 166 14 26 67 51 90 44 30 -10 50 -45 145
-255 49 -107 91 -198 94 -202 3 -3 42 -9 87 -13 l80 -7 59 139 c98 232 114
262 146 278 22 12 34 13 50 4 39 -20 47 -64 46 -227 -2 -141 -4 -155 -22 -168
-11 -9 -34 -14 -52 -12 -28 3 -33 1 -33 -17 0 -19 10 -24 83 -39 102 -22 284
-75 411 -120 l96 -34 0 133 c0 154 -5 162 -76 120 -23 -14 -45 -25 -48 -25 -3
0 -6 44 -6 98 l1 97 20 -25 c100 -122 109 -121 109 14 l0 104 -42 17 c-189 77
-415 134 -653 164 -44 6 -98 13 -120 16 -51 6 -447 13 -500 9z m577 -91 c15
-15 28 -34 28 -42 0 -15 -72 -207 -81 -216 -3 -2 -28 49 -56 113 -55 126 -56
139 -5 167 36 20 79 11 114 -22z"/>
<path d="M1599 2970 c-125 -23 -263 -63 -369 -107 -98 -40 -110 -48 -110 -74
0 -15 5 -17 30 -13 19 4 38 1 55 -10 25 -16 25 -17 25 -164 0 -163 -7 -187
-69 -233 -18 -13 -31 -32 -31 -45 0 -21 2 -21 108 17 131 48 277 94 357 112
50 11 61 17 63 37 3 21 1 22 -26 17 -40 -8 -99 9 -112 33 -10 19 -14 120 -5
120 3 0 27 -16 55 -36 l49 -35 3 120 3 121 57 -45 c32 -25 60 -45 63 -45 3 0
5 56 5 125 l0 125 -27 -1 c-16 0 -71 -9 -124 -19z"/>
<path d="M1940 2423 c-241 -26 -503 -84 -666 -146 -95 -37 -194 -84 -194 -92
0 -3 23 6 51 20 164 84 439 155 769 200 100 13 550 17 681 6 323 -29 668 -114
860 -211 21 -11 39 -18 39 -15 0 11 -162 82 -260 115 -125 41 -275 77 -435
102 -110 18 -182 21 -470 23 -187 1 -356 1 -375 -2z"/>
<path d="M990 1759 c-46 -52 -57 -60 -84 -57 -21 2 -35 11 -43 28 -12 23 -13
23 -13 4 0 -12 9 -33 20 -47 17 -22 18 -26 4 -31 -9 -3 -34 -6 -55 -6 -24 0
-38 -4 -34 -10 9 -15 91 -12 132 5 20 8 38 14 40 11 6 -5 -88 -43 -132 -52
l-40 -8 41 -4 c22 -2 60 4 84 12 23 8 38 10 32 4 -5 -5 -43 -20 -83 -34 l-74
-24 56 4 c68 5 121 31 171 83 69 72 99 183 49 183 -11 0 -42 -27 -71 -61z"/>
<path d="M3474 1794 c-9 -33 28 -113 73 -160 47 -48 106 -75 172 -80 53 -3 54
-3 21 7 -73 23 -121 42 -126 50 -2 5 12 1 32 -7 20 -8 56 -14 82 -12 l47 3
-70 18 c-38 9 -74 22 -80 29 -7 8 -5 9 10 3 35 -14 132 -18 139 -6 5 7 -6 11
-33 11 -21 0 -46 3 -55 6 -14 5 -13 9 4 31 11 14 20 33 20 42 0 11 -4 10 -16
-7 -28 -41 -66 -30 -125 38 -57 65 -85 75 -95 34z"/>
</g>
</svg>
